<?xml version="1.0" encoding="UTF-8" standalone="no"?>
<svg
   xmlns:dc="http://purl.org/dc/elements/1.1/"
   xmlns:cc="http://creativecommons.org/ns#"
   xmlns:rdf="http://www.w3.org/1999/02/22-rdf-syntax-ns#"
   xmlns:svg="http://www.w3.org/2000/svg"
   xmlns="http://www.w3.org/2000/svg"
   xmlns:sodipodi="http://sodipodi.sourceforge.net/DTD/sodipodi-0.dtd"
   xmlns:inkscape="http://www.inkscape.org/namespaces/inkscape"
   width="64"
   height="64"
   version="1.1"
   viewBox="0 0 64 64"
   id="svg16"
   sodipodi:docname="yt.svg"
   inkscape:version="0.92.3 (2405546, 2018-03-11)">
  <metadata
     id="metadata22">
    <rdf:RDF>
      <cc:Work
         rdf:about="">
        <dc:format>image/svg+xml</dc:format>
        <dc:type
           rdf:resource="http://purl.org/dc/dcmitype/StillImage" />
      </cc:Work>
    </rdf:RDF>
  </metadata>
  <defs
     id="defs20" />
  <sodipodi:namedview
     pagecolor="#ffffff"
     bordercolor="#666666"
     borderopacity="1"
     objecttolerance="10"
     gridtolerance="10"
     guidetolerance="10"
     inkscape:pageopacity="0"
     inkscape:pageshadow="2"
     inkscape:window-width="1600"
     inkscape:window-height="837"
     id="namedview18"
     showgrid="false"
     inkscape:zoom="3.6875"
     inkscape:cx="32"
     inkscape:cy="32"
     inkscape:window-x="-8"
     inkscape:window-y="-8"
     inkscape:window-maximized="1"
     inkscape:current-layer="svg16" />
  <circle
     style="opacity:0.2"
     cx="32"
     cy="33"
     r="28"
     id="circle2" />
  <circle
     cx="32"
     cy="32"
     r="28"
     style="fill:#e1e1e1;fill-opacity:1"
     id="circle4" />
  <circle
     style="opacity:0.1"
     cx="32"
     cy="33"
     r="22"
     id="circle6" />
  <circle
     cx="32"
     cy="32"
     r="22"
     style="fill:#c83737"
     id="circle8" />
  <path
     d="M 25.033687,20.000864 A 2.9626244,3.0043363 0 0 0 22,23.00099 l 0,9.99585 0.0018,9.995852 a 2.9626244,3.0043363 0 0 0 4.443494,2.605061 l 8.535978,-5.000858 8.535978,-4.996949 a 2.9626244,3.0043363 0 0 0 0.0018,-5.204257 l -8.537848,-4.994991 -8.535978,-4.998904 a 2.9626244,3.0043363 0 0 0 -0.825399,-0.32661 2.9626244,3.0043363 0 0 0 -0.586296,-0.07432 z"
     style="opacity:0.2;fill-rule:evenodd"
     id="path10" />
  <path
     style="fill:#ffffff;fill-rule:evenodd"
     d="M 25.033687,19.000864 A 2.9626244,3.0043363 0 0 0 22,22.00099 l 0,9.99585 0.0018,9.995852 a 2.9626244,3.0043363 0 0 0 4.443494,2.605061 l 8.535978,-5.000858 8.535978,-4.996949 a 2.9626244,3.0043363 0 0 0 0.0018,-5.204257 l -8.537848,-4.994991 -8.535978,-4.998904 a 2.9626244,3.0043363 0 0 0 -0.825399,-0.32661 2.9626244,3.0043363 0 0 0 -0.586296,-0.07432 z"
     id="path12" />
  <path
     style="fill:#ffffff;opacity:0.2"
     d="M 32 4 A 28 28 0 0 0 4 32 A 28 28 0 0 0 4.0214844 32.585938 A 28 28 0 0 1 32 5 A 28 28 0 0 1 59.978516 32.414062 A 28 28 0 0 0 60 32 A 28 28 0 0 0 32 4 z"
     id="path14" />
</svg>
