<?xml version="1.0" standalone="no"?><!-- Generator: Gravit.io --><svg xmlns="http://www.w3.org/2000/svg" xmlns:xlink="http://www.w3.org/1999/xlink" style="isolation:isolate" viewBox="0 0 1000 600" width="1000" height="600"><defs><clipPath id="_clipPath_pnXmcRJodvP0H97JaYQ5DtJaiSpN4kLm"><rect width="1000" height="600"/></clipPath></defs><g clip-path="url(#_clipPath_pnXmcRJodvP0H97JaYQ5DtJaiSpN4kLm)"><rect width="1000" height="600" style="fill:rgb(38,50,56)"/><rect x="0" y="0" width="117" height="25.059" transform="matrix(1,0,0,1,0,0)" fill="rgb(63,81,181)"/><rect x="135" y="0" width="60" height="25.059" transform="matrix(1,0,0,1,0,0)" fill="rgb(255,193,7)"/><rect x="213" y="0" width="81" height="25.059" transform="matrix(1,0,0,1,0,0)" fill="rgb(244,67,54)"/><rect x="312" y="0" width="152" height="25.059" transform="matrix(1,0,0,1,0,0)" fill="rgb(139,195,74)"/><rect x="487" y="0" width="120" height="25.059" transform="matrix(1,0,0,1,0,0)" fill="rgb(233,30,99)"/><rect x="627" y="0" width="76" height="25.059" transform="matrix(1,0,0,1,0,0)" fill="rgb(0,150,136)"/><rect x="723" y="0" width="135" height="25.059" transform="matrix(1,0,0,1,0,0)" fill="rgb(3,169,244)"/><rect x="878" y="0" width="59" height="25.059" transform="matrix(1,0,0,1,0,0)" fill="rgb(103,58,183)"/><rect x="957" y="0" width="43" height="25.059" transform="matrix(1,0,0,1,0,0)" fill="rgb(255,87,34)"/><rect x="707" y="425" width="117" height="25.059" transform="matrix(1,0,0,1,0,0)" fill="rgb(233,30,99)"/><rect x="842" y="425" width="60" height="25.059" transform="matrix(1,0,0,1,0,0)" fill="rgb(255,193,7)"/><rect x="920" y="425" width="81" height="25.059" transform="matrix(1,0,0,1,0,0)" fill="rgb(76,175,80)"/><rect x="537" y="425" width="152" height="25.059" transform="matrix(-1,0,0,-1,1226,875.059)" fill="rgb(255,87,34)"/><rect x="394" y="425" width="120" height="25.059" transform="matrix(-1,0,0,-1,908,875.059)" fill="rgb(156,39,176)"/><rect x="1" y="425" width="76" height="25.059" transform="matrix(1,0,0,1,0,0)" fill="rgb(21,101,192)"/><rect x="97" y="425" width="135" height="25.059" transform="matrix(1,0,0,1,0,0)" fill="rgb(3,169,244)"/><rect x="252" y="425" width="59" height="25.059" transform="matrix(1,0,0,1,0,0)" fill="rgb(103,58,183)"/><rect x="331" y="425" width="43" height="25.059" transform="matrix(1,0,0,1,0,0)" fill="rgb(139,195,74)"/><rect x="883" y="45" width="117" height="25.059" transform="matrix(-1,0,0,-1,1883,115.059)" fill="rgb(63,81,181)"/><rect x="805" y="45" width="60" height="25.059" transform="matrix(-1,0,0,-1,1670,115.059)" fill="rgb(255,193,7)"/><rect x="706" y="45" width="81" height="25.059" transform="matrix(-1,0,0,-1,1493,115.059)" fill="rgb(244,67,54)"/><rect x="536" y="45" width="152" height="25.059" transform="matrix(-1,0,0,-1,1224,115.059)" fill="rgb(139,195,74)"/><rect x="393" y="45" width="120" height="25.059" transform="matrix(-1,0,0,-1,906,115.059)" fill="rgb(233,30,99)"/><rect x="297" y="45" width="76" height="25.059" transform="matrix(-1,0,0,-1,670,115.059)" fill="rgb(0,150,136)"/><rect x="142" y="45" width="135" height="25.059" transform="matrix(-1,0,0,-1,419,115.059)" fill="rgb(3,169,244)"/><rect x="63" y="45" width="59" height="25.059" transform="matrix(-1,0,0,-1,185,115.059)" fill="rgb(103,58,183)"/><rect x="0" y="45" width="43" height="25.059" transform="matrix(-1,0,0,-1,43,115.059)" fill="rgb(255,87,34)"/><rect x="384" y="473" width="117" height="25.059" transform="matrix(1,0,0,1,0,0)" fill="rgb(63,81,181)"/><rect x="1" y="473" width="60" height="25.059" transform="matrix(1,0,0,1,0,0)" fill="rgb(255,193,7)"/><rect x="79" y="473" width="81" height="25.059" transform="matrix(1,0,0,1,0,0)" fill="rgb(244,67,54)"/><rect x="519" y="473" width="152" height="25.059" transform="matrix(-1,0,0,-1,1190,971.059)" fill="rgb(139,195,74)"/><rect x="178" y="473" width="120" height="25.059" transform="matrix(-1,0,0,-1,476,971.059)" fill="rgb(233,30,99)"/><rect x="846" y="473" width="76" height="25.059" transform="matrix(-1,0,0,-1,1768,971.059)" fill="rgb(0,150,136)"/><rect x="691" y="473" width="135" height="25.059" transform="matrix(-1,0,0,-1,1517,971.059)" fill="rgb(3,169,244)"/><rect x="942" y="473" width="59" height="25.059" transform="matrix(1,0,0,1,0,0)" fill="rgb(103,58,183)"/><rect x="318" y="473" width="43" height="25.059" transform="matrix(1,0,0,1,0,0)" fill="rgb(255,87,34)"/><rect x="883" y="377" width="117" height="25.059" transform="matrix(-1,0,0,-1,1883,779.059)" fill="rgb(63,81,181)"/><rect x="805" y="377" width="60" height="25.059" transform="matrix(-1,0,0,-1,1670,779.059)" fill="rgb(255,193,7)"/><rect x="706" y="377" width="81" height="25.059" transform="matrix(-1,0,0,-1,1493,779.059)" fill="rgb(244,67,54)"/><rect x="536" y="377" width="152" height="25.059" transform="matrix(-1,0,0,-1,1224,779.059)" fill="rgb(139,195,74)"/><rect x="393" y="377" width="120" height="25.059" transform="matrix(-1,0,0,-1,906,779.059)" fill="rgb(233,30,99)"/><rect x="297" y="377" width="76" height="25.059" transform="matrix(-1,0,0,-1,670,779.059)" fill="rgb(0,150,136)"/><rect x="142" y="377" width="135" height="25.059" transform="matrix(-1,0,0,-1,419,779.059)" fill="rgb(3,169,244)"/><rect x="63" y="377" width="59" height="25.059" transform="matrix(-1,0,0,-1,185,779.059)" fill="rgb(103,58,183)"/><rect x="0" y="377" width="43" height="25.059" transform="matrix(-1,0,0,-1,43,779.059)" fill="rgb(255,87,34)"/><rect x="178" y="140" width="117" height="25.059" transform="matrix(-1,0,0,-1,473,305.059)" fill="rgb(233,30,99)"/><rect x="100" y="140" width="60" height="25.059" transform="matrix(-1,0,0,-1,260,305.059)" fill="rgb(255,193,7)"/><rect x="1" y="140" width="81" height="25.059" transform="matrix(-1,0,0,-1,83,305.059)" fill="rgb(76,175,80)"/><rect x="313" y="140" width="152" height="25.059" transform="matrix(1,0,0,1,0,0)" fill="rgb(255,87,34)"/><rect x="488" y="140" width="120" height="25.059" transform="matrix(1,0,0,1,0,0)" fill="rgb(156,39,176)"/><rect x="925" y="140" width="76" height="25.059" transform="matrix(-1,0,0,-1,1926,305.059)" fill="rgb(21,101,192)"/><rect x="770" y="140" width="135" height="25.059" transform="matrix(-1,0,0,-1,1675,305.059)" fill="rgb(3,169,244)"/><rect x="691" y="140" width="59" height="25.059" transform="matrix(-1,0,0,-1,1441,305.059)" fill="rgb(103,58,183)"/><rect x="628" y="140" width="43" height="25.059" transform="matrix(-1,0,0,-1,1299,305.059)" fill="rgb(139,195,74)"/><rect x="501" y="92" width="117" height="25.059" transform="matrix(-1,0,0,-1,1119,209.059)" fill="rgb(63,81,181)"/><rect x="941" y="92" width="60" height="25.059" transform="matrix(-1,0,0,-1,1942,209.059)" fill="rgb(255,193,7)"/><rect x="842" y="92" width="81" height="25.059" transform="matrix(-1,0,0,-1,1765,209.059)" fill="rgb(244,67,54)"/><rect x="331" y="92" width="152" height="25.059" transform="matrix(1,0,0,1,0,0)" fill="rgb(139,195,74)"/><rect x="704" y="92" width="120" height="25.059" transform="matrix(1,0,0,1,0,0)" fill="rgb(233,30,99)"/><rect x="80" y="92" width="76" height="25.059" transform="matrix(1,0,0,1,0,0)" fill="rgb(0,150,136)"/><rect x="176" y="92" width="135" height="25.059" transform="matrix(1,0,0,1,0,0)" fill="rgb(3,169,244)"/><rect x="1" y="92" width="59" height="25.059" transform="matrix(-1,0,0,-1,61,209.059)" fill="rgb(103,58,183)"/><rect x="641" y="92" width="43" height="25.059" transform="matrix(-1,0,0,-1,1325,209.059)" fill="rgb(255,87,34)"/><rect x="2" y="188" width="117" height="25.059" transform="matrix(1,0,0,1,0,0)" fill="rgb(63,81,181)"/><rect x="198" y="188" width="60" height="25.059" transform="matrix(-1,0,0,-1,456,401.059)" fill="rgb(255,193,7)"/><rect x="591" y="188" width="81" height="25.059" transform="matrix(-1,0,0,-1,1263,401.059)" fill="rgb(244,67,54)"/><rect x="421" y="188" width="152" height="25.059" transform="matrix(-1,0,0,-1,994,401.059)" fill="rgb(139,195,74)"/><rect x="278" y="188" width="120" height="25.059" transform="matrix(-1,0,0,-1,676,401.059)" fill="rgb(233,30,99)"/><rect x="926" y="188" width="76" height="25.059" transform="matrix(-1,0,0,-1,1928,401.059)" fill="rgb(0,150,136)"/><rect x="771" y="188" width="135" height="25.059" transform="matrix(-1,0,0,-1,1677,401.059)" fill="rgb(3,169,244)"/><rect x="692" y="188" width="59" height="25.059" transform="matrix(-1,0,0,-1,1443,401.059)" fill="rgb(103,58,183)"/><rect x="137" y="188" width="43" height="25.059" transform="matrix(-1,0,0,-1,317,401.059)" fill="rgb(255,87,34)"/><rect x="270" y="328" width="117" height="25.059" transform="matrix(1,0,0,1,0,0)" fill="rgb(233,30,99)"/><rect x="405" y="328" width="60" height="25.059" transform="matrix(1,0,0,1,0,0)" fill="rgb(255,193,7)"/><rect x="1" y="328" width="81" height="25.059" transform="matrix(-1,0,0,-1,83,681.059)" fill="rgb(76,175,80)"/><rect x="100" y="328" width="152" height="25.059" transform="matrix(-1,0,0,-1,352,681.059)" fill="rgb(255,87,34)"/><rect x="785" y="328" width="120" height="25.059" transform="matrix(-1,0,0,-1,1690,681.059)" fill="rgb(156,39,176)"/><rect x="925" y="328" width="76" height="25.059" transform="matrix(-1,0,0,-1,1926,681.059)" fill="rgb(21,101,192)"/><rect x="488" y="328" width="135" height="25.059" transform="matrix(1,0,0,1,0,0)" fill="rgb(3,169,244)"/><rect x="643" y="328" width="59" height="25.059" transform="matrix(1,0,0,1,0,0)" fill="rgb(103,58,183)"/><rect x="722" y="328" width="43" height="25.059" transform="matrix(1,0,0,1,0,0)" fill="rgb(139,195,74)"/><rect x="884" y="233" width="117" height="25.059" transform="matrix(-1,0,0,-1,1885,491.059)" fill="rgb(63,81,181)"/><rect x="806" y="233" width="60" height="25.059" transform="matrix(-1,0,0,-1,1672,491.059)" fill="rgb(255,193,7)"/><rect x="707" y="233" width="81" height="25.059" transform="matrix(-1,0,0,-1,1495,491.059)" fill="rgb(244,67,54)"/><rect x="537" y="233" width="152" height="25.059" transform="matrix(-1,0,0,-1,1226,491.059)" fill="rgb(139,195,74)"/><rect x="0" y="280" width="77" height="25.059" transform="matrix(-1,0,0,-1,77,585.059)" fill="rgb(233,30,99)"/><rect x="110" y="280" width="76" height="25.059" transform="matrix(1,0,0,1,0,0)" fill="rgb(0,150,136)"/><rect x="206" y="280" width="135" height="25.059" transform="matrix(1,0,0,1,0,0)" fill="rgb(3,169,244)"/><rect x="361" y="280" width="59" height="25.059" transform="matrix(1,0,0,1,0,0)" fill="rgb(103,58,183)"/><rect x="440" y="280" width="43" height="25.059" transform="matrix(1,0,0,1,0,0)" fill="rgb(255,87,34)"/><rect x="501" y="280" width="117" height="25.059" transform="matrix(-1,0,0,-1,1119,585.059)" fill="rgb(63,81,181)"/><rect x="941" y="280" width="60" height="25.059" transform="matrix(-1,0,0,-1,1942,585.059)" fill="rgb(255,193,7)"/><rect x="842" y="280" width="81" height="25.059" transform="matrix(-1,0,0,-1,1765,585.059)" fill="rgb(244,67,54)"/><rect x="1" y="233" width="152" height="25.059" transform="matrix(-1,0,0,-1,154,491.059)" fill="rgb(139,195,74)"/><rect x="704" y="280" width="120" height="25.059" transform="matrix(1,0,0,1,0,0)" fill="rgb(233,30,99)"/><rect x="328" y="233" width="76" height="25.059" transform="matrix(-1,0,0,-1,732,491.059)" fill="rgb(0,150,136)"/><rect x="173" y="233" width="135" height="25.059" transform="matrix(-1,0,0,-1,481,491.059)" fill="rgb(3,169,244)"/><rect x="424" y="233" width="97" height="25.059" transform="matrix(1,0,0,1,0,0)" fill="rgb(103,58,183)"/><rect x="641" y="280" width="43" height="25.059" transform="matrix(-1,0,0,-1,1325,585.059)" fill="rgb(255,87,34)"/><rect x="885" y="613" width="117" height="25.059" transform="matrix(-1,0,0,-1,1887,1251.059)" fill="rgb(63,81,181)"/><rect x="807" y="613" width="60" height="25.059" transform="matrix(-1,0,0,-1,1674,1251.059)" fill="rgb(255,193,7)"/><rect x="708" y="613" width="81" height="25.059" transform="matrix(-1,0,0,-1,1497,1251.059)" fill="rgb(244,67,54)"/><rect x="538" y="613" width="152" height="25.059" transform="matrix(-1,0,0,-1,1228,1251.059)" fill="rgb(139,195,74)"/><rect x="395" y="613" width="120" height="25.059" transform="matrix(-1,0,0,-1,910,1251.059)" fill="rgb(233,30,99)"/><rect x="299" y="613" width="76" height="25.059" transform="matrix(-1,0,0,-1,674,1251.059)" fill="rgb(0,150,136)"/><rect x="144" y="613" width="135" height="25.059" transform="matrix(-1,0,0,-1,423,1251.059)" fill="rgb(3,169,244)"/><rect x="65" y="613" width="59" height="25.059" transform="matrix(-1,0,0,-1,189,1251.059)" fill="rgb(103,58,183)"/><rect x="2" y="613" width="43" height="25.059" transform="matrix(-1,0,0,-1,47,1251.059)" fill="rgb(255,87,34)"/><rect x="3" y="568" width="117" height="25.059" transform="matrix(1,0,0,1,0,0)" fill="rgb(63,81,181)"/><rect x="138" y="568" width="60" height="25.059" transform="matrix(1,0,0,1,0,0)" fill="rgb(255,193,7)"/><rect x="216" y="568" width="81" height="25.059" transform="matrix(1,0,0,1,0,0)" fill="rgb(244,67,54)"/><rect x="315" y="568" width="152" height="25.059" transform="matrix(1,0,0,1,0,0)" fill="rgb(139,195,74)"/><rect x="927" y="521" width="77" height="25.059" transform="matrix(1,0,0,1,0,0)" fill="rgb(233,30,99)"/><rect x="818" y="521" width="76" height="25.059" transform="matrix(-1,0,0,-1,1712,1067.059)" fill="rgb(0,150,136)"/><rect x="663" y="521" width="135" height="25.059" transform="matrix(-1,0,0,-1,1461,1067.059)" fill="rgb(3,169,244)"/><rect x="584" y="521" width="59" height="25.059" transform="matrix(-1,0,0,-1,1227,1067.059)" fill="rgb(103,58,183)"/><rect x="521" y="521" width="43" height="25.059" transform="matrix(-1,0,0,-1,1085,1067.059)" fill="rgb(255,87,34)"/><rect x="386" y="521" width="117" height="25.059" transform="matrix(1,0,0,1,0,0)" fill="rgb(63,81,181)"/><rect x="3" y="521" width="60" height="25.059" transform="matrix(1,0,0,1,0,0)" fill="rgb(255,193,7)"/><rect x="81" y="521" width="81" height="25.059" transform="matrix(1,0,0,1,0,0)" fill="rgb(244,67,54)"/><rect x="851" y="568" width="152" height="25.059" transform="matrix(1,0,0,1,0,0)" fill="rgb(139,195,74)"/><rect x="180" y="521" width="120" height="25.059" transform="matrix(-1,0,0,-1,480,1067.059)" fill="rgb(233,30,99)"/><rect x="600" y="568" width="76" height="25.059" transform="matrix(1,0,0,1,0,0)" fill="rgb(0,150,136)"/><rect x="696" y="568" width="135" height="25.059" transform="matrix(1,0,0,1,0,0)" fill="rgb(3,169,244)"/><rect x="483" y="568" width="97" height="25.059" transform="matrix(-1,0,0,-1,1063,1161.059)" fill="rgb(103,58,183)"/><rect x="320" y="521" width="43" height="25.059" transform="matrix(1,0,0,1,0,0)" fill="rgb(255,87,34)"/></g></svg>